<mxfile host="app.diagrams.net" modified="2024-07-09T15:14:15.155Z" agent="Mozilla/5.0 (X11; Linux x86_64) AppleWebKit/537.36 (KHTML, like Gecko) Chrome/126.0.0.0 Safari/537.36" etag="bh9vmPB2z5BlaiCiAghq" version="24.6.4" type="github">
  <diagram name="Page-1" id="bfe91b75-5d2c-26a0-9c1d-138518896778">
    <mxGraphModel dx="899" dy="506" grid="1" gridSize="10" guides="1" tooltips="1" connect="1" arrows="1" fold="1" page="1" pageScale="1" pageWidth="1100" pageHeight="850" background="none" math="0" shadow="0">
      <root>
        <mxCell id="0" />
        <mxCell id="1" parent="0" />
        <mxCell id="6iD_Mrj8QfbNQLrUIZJ0-72" value="&lt;font style=&quot;font-size: 28px;&quot;&gt;VMS&lt;/font&gt;" style="rounded=1;whiteSpace=wrap;html=1;fillColor=none;strokeColor=#6c8ebf;dashed=1;dashPattern=8 8;" vertex="1" parent="1">
          <mxGeometry x="950" y="370" width="480" height="675" as="geometry" />
        </mxCell>
        <mxCell id="7c3789c024ecab99-53" value="ISP" style="html=1;fillColor=#CCCCCC;strokeColor=#6881B3;gradientColor=none;gradientDirection=north;strokeWidth=2;shape=mxgraph.networks.cloud;fontColor=#6881B3;rounded=0;shadow=0;comic=0;align=center;fontSize=28;" parent="1" vertex="1">
          <mxGeometry x="1870" y="790" width="330" height="140" as="geometry" />
        </mxCell>
        <mxCell id="6iD_Mrj8QfbNQLrUIZJ0-4" style="edgeStyle=orthogonalEdgeStyle;rounded=0;orthogonalLoop=1;jettySize=auto;html=1;exitX=0;exitY=0.5;exitDx=0;exitDy=0;exitPerimeter=0;" edge="1" parent="1">
          <mxGeometry relative="1" as="geometry">
            <mxPoint x="1640" y="905.49" as="sourcePoint" />
            <mxPoint x="1550" y="888.5033333333333" as="targetPoint" />
            <Array as="points">
              <mxPoint x="1640" y="888.49" />
            </Array>
          </mxGeometry>
        </mxCell>
        <mxCell id="6iD_Mrj8QfbNQLrUIZJ0-24" value="WAN" style="edgeLabel;html=1;align=center;verticalAlign=middle;resizable=0;points=[];" vertex="1" connectable="0" parent="6iD_Mrj8QfbNQLrUIZJ0-4">
          <mxGeometry x="0.8459" relative="1" as="geometry">
            <mxPoint x="23" as="offset" />
          </mxGeometry>
        </mxCell>
        <mxCell id="7c3789c024ecab99-54" value="ISP Router&lt;br&gt;&lt;span style=&quot;color: rgb(0, 0, 0);&quot;&gt;192.168.178.1/24&lt;br&gt;&lt;br&gt;dhcp from&lt;br&gt;&lt;div style=&quot;text-align: left;&quot;&gt;&lt;span style=&quot;background-color: initial;&quot;&gt;192.168.178.0 to&lt;/span&gt;&lt;/div&gt;&lt;/span&gt;&lt;div style=&quot;&quot;&gt;&lt;div style=&quot;text-align: left;&quot;&gt;&lt;span style=&quot;color: rgb(0, 0, 0); background-color: initial;&quot;&gt;192.168.178.127&lt;/span&gt;&lt;/div&gt;&lt;/div&gt;" style="fontColor=#0066CC;verticalAlign=top;verticalLabelPosition=bottom;labelPosition=center;align=center;html=1;fillColor=#CCCCCC;strokeColor=#6881B3;gradientColor=none;gradientDirection=north;strokeWidth=2;shape=mxgraph.networks.router;rounded=0;shadow=0;comic=0;" parent="1" vertex="1">
          <mxGeometry x="1640" y="882" width="100" height="30" as="geometry" />
        </mxCell>
        <mxCell id="6iD_Mrj8QfbNQLrUIZJ0-58" style="edgeStyle=orthogonalEdgeStyle;rounded=0;orthogonalLoop=1;jettySize=auto;html=1;exitX=0.5;exitY=0;exitDx=0;exitDy=0;exitPerimeter=0;entryX=1;entryY=0.5;entryDx=0;entryDy=0;entryPerimeter=0;" edge="1" parent="1" source="6iD_Mrj8QfbNQLrUIZJ0-1" target="6iD_Mrj8QfbNQLrUIZJ0-62">
          <mxGeometry relative="1" as="geometry">
            <mxPoint x="1530.1111111111109" y="720" as="targetPoint" />
          </mxGeometry>
        </mxCell>
        <mxCell id="6iD_Mrj8QfbNQLrUIZJ0-63" value="LAN" style="edgeLabel;html=1;align=center;verticalAlign=middle;resizable=0;points=[];" vertex="1" connectable="0" parent="6iD_Mrj8QfbNQLrUIZJ0-58">
          <mxGeometry x="0.3152" y="-1" relative="1" as="geometry">
            <mxPoint as="offset" />
          </mxGeometry>
        </mxCell>
        <mxCell id="6iD_Mrj8QfbNQLrUIZJ0-1" value="Switch" style="fontColor=#0066CC;verticalAlign=top;verticalLabelPosition=bottom;labelPosition=center;align=center;html=1;outlineConnect=0;fillColor=#CCCCCC;strokeColor=#6881B3;gradientColor=none;gradientDirection=north;strokeWidth=2;shape=mxgraph.networks.switch;" vertex="1" parent="1">
          <mxGeometry x="1480" y="770" width="100" height="30" as="geometry" />
        </mxCell>
        <mxCell id="6iD_Mrj8QfbNQLrUIZJ0-25" value="LAN" style="edgeStyle=orthogonalEdgeStyle;rounded=0;orthogonalLoop=1;jettySize=auto;html=1;exitX=0.5;exitY=0;exitDx=0;exitDy=0;exitPerimeter=0;" edge="1" parent="1" source="6iD_Mrj8QfbNQLrUIZJ0-3" target="6iD_Mrj8QfbNQLrUIZJ0-1">
          <mxGeometry relative="1" as="geometry">
            <Array as="points">
              <mxPoint x="1520" y="867" />
              <mxPoint x="1520" y="830" />
              <mxPoint x="1490" y="830" />
            </Array>
          </mxGeometry>
        </mxCell>
        <mxCell id="6iD_Mrj8QfbNQLrUIZJ0-34" style="edgeStyle=orthogonalEdgeStyle;rounded=0;orthogonalLoop=1;jettySize=auto;html=1;exitX=0;exitY=0.5;exitDx=0;exitDy=0;exitPerimeter=0;" edge="1" parent="1" source="6iD_Mrj8QfbNQLrUIZJ0-3" target="6iD_Mrj8QfbNQLrUIZJ0-5">
          <mxGeometry relative="1" as="geometry">
            <Array as="points">
              <mxPoint x="1520" y="880" />
              <mxPoint x="1290" y="880" />
            </Array>
          </mxGeometry>
        </mxCell>
        <mxCell id="6iD_Mrj8QfbNQLrUIZJ0-35" value="enp1s0f1 (LANIN)" style="edgeLabel;html=1;align=center;verticalAlign=middle;resizable=0;points=[];" vertex="1" connectable="0" parent="6iD_Mrj8QfbNQLrUIZJ0-34">
          <mxGeometry x="0.0754" y="1" relative="1" as="geometry">
            <mxPoint as="offset" />
          </mxGeometry>
        </mxCell>
        <mxCell id="6iD_Mrj8QfbNQLrUIZJ0-37" style="edgeStyle=orthogonalEdgeStyle;rounded=0;orthogonalLoop=1;jettySize=auto;html=1;exitX=0;exitY=0.5;exitDx=0;exitDy=0;exitPerimeter=0;" edge="1" parent="1" source="6iD_Mrj8QfbNQLrUIZJ0-3" target="6iD_Mrj8QfbNQLrUIZJ0-31">
          <mxGeometry relative="1" as="geometry">
            <Array as="points">
              <mxPoint x="1520" y="920" />
              <mxPoint x="1290" y="920" />
            </Array>
          </mxGeometry>
        </mxCell>
        <mxCell id="6iD_Mrj8QfbNQLrUIZJ0-38" value="enp1s0f0 (LAN)" style="edgeLabel;html=1;align=center;verticalAlign=middle;resizable=0;points=[];" vertex="1" connectable="0" parent="6iD_Mrj8QfbNQLrUIZJ0-37">
          <mxGeometry x="0.1062" y="-2" relative="1" as="geometry">
            <mxPoint as="offset" />
          </mxGeometry>
        </mxCell>
        <mxCell id="6iD_Mrj8QfbNQLrUIZJ0-3" value="Type 1&lt;div&gt;hypervisor&lt;br&gt;&lt;br&gt;w/ 3 rj45 controllers&lt;br&gt;enp2s0 = WAN&lt;/div&gt;&lt;div&gt;enp1s0f1 = LAN&lt;br&gt;enp1s0f1 = LANIN (to vms)&lt;br&gt;&lt;font color=&quot;#000000&quot;&gt;192.168.178.128/24&lt;br&gt;&lt;br&gt;dhcp from&lt;br&gt;&lt;div style=&quot;text-align: left;&quot;&gt;&lt;span style=&quot;background-color: initial;&quot;&gt;192.168.178.129 to&lt;/span&gt;&lt;/div&gt;&lt;div style=&quot;text-align: left;&quot;&gt;&lt;span style=&quot;background-color: initial;&quot;&gt;192.168.178.255&lt;/span&gt;&lt;/div&gt;&lt;/font&gt;&lt;/div&gt;" style="fontColor=#0066CC;verticalAlign=top;verticalLabelPosition=bottom;labelPosition=center;align=center;html=1;outlineConnect=0;fillColor=#CCCCCC;strokeColor=#6881B3;gradientColor=none;gradientDirection=north;strokeWidth=2;shape=mxgraph.networks.desktop_pc;" vertex="1" parent="1">
          <mxGeometry x="1520" y="867" width="30" height="60" as="geometry" />
        </mxCell>
        <mxCell id="6iD_Mrj8QfbNQLrUIZJ0-5" value="vmbr2 (LANIN)" style="html=1;outlineConnect=0;fillColor=#CCCCCC;strokeColor=#6881B3;gradientColor=none;gradientDirection=north;strokeWidth=2;shape=mxgraph.networks.bus;gradientColor=none;gradientDirection=north;fontColor=default;perimeter=backbonePerimeter;backboneSize=20;labelBackgroundColor=none;labelBorderColor=none;textShadow=0;" vertex="1" parent="1">
          <mxGeometry x="1190" y="828" width="200" height="22" as="geometry" />
        </mxCell>
        <mxCell id="6iD_Mrj8QfbNQLrUIZJ0-26" style="edgeStyle=orthogonalEdgeStyle;rounded=0;orthogonalLoop=1;jettySize=auto;html=1;" edge="1" parent="1" source="6iD_Mrj8QfbNQLrUIZJ0-1" target="6iD_Mrj8QfbNQLrUIZJ0-3">
          <mxGeometry relative="1" as="geometry">
            <mxPoint x="1570" y="810" as="sourcePoint" />
            <mxPoint x="1560" y="800" as="targetPoint" />
            <Array as="points">
              <mxPoint x="1570" y="830" />
              <mxPoint x="1550" y="830" />
            </Array>
          </mxGeometry>
        </mxCell>
        <mxCell id="6iD_Mrj8QfbNQLrUIZJ0-27" value="LANIN" style="edgeLabel;html=1;align=center;verticalAlign=middle;resizable=0;points=[];" vertex="1" connectable="0" parent="6iD_Mrj8QfbNQLrUIZJ0-26">
          <mxGeometry x="-0.0168" y="2" relative="1" as="geometry">
            <mxPoint as="offset" />
          </mxGeometry>
        </mxCell>
        <mxCell id="6iD_Mrj8QfbNQLrUIZJ0-28" style="edgeStyle=orthogonalEdgeStyle;rounded=0;orthogonalLoop=1;jettySize=auto;html=1;exitX=0.001;exitY=0.763;exitDx=0;exitDy=0;exitPerimeter=0;entryX=1;entryY=0.5;entryDx=0;entryDy=0;entryPerimeter=0;" edge="1" parent="1" source="7c3789c024ecab99-53" target="7c3789c024ecab99-54">
          <mxGeometry relative="1" as="geometry">
            <Array as="points" />
          </mxGeometry>
        </mxCell>
        <mxCell id="6iD_Mrj8QfbNQLrUIZJ0-29" value="Fibre Optic" style="edgeLabel;html=1;align=center;verticalAlign=middle;resizable=0;points=[];" vertex="1" connectable="0" parent="6iD_Mrj8QfbNQLrUIZJ0-28">
          <mxGeometry x="-0.0755" y="1" relative="1" as="geometry">
            <mxPoint as="offset" />
          </mxGeometry>
        </mxCell>
        <mxCell id="6iD_Mrj8QfbNQLrUIZJ0-81" style="edgeStyle=orthogonalEdgeStyle;rounded=0;orthogonalLoop=1;jettySize=auto;html=1;" edge="1" parent="1" source="6iD_Mrj8QfbNQLrUIZJ0-31" target="6iD_Mrj8QfbNQLrUIZJ0-55">
          <mxGeometry relative="1" as="geometry" />
        </mxCell>
        <mxCell id="6iD_Mrj8QfbNQLrUIZJ0-85" value="eth0 (WAN)" style="edgeLabel;html=1;align=center;verticalAlign=middle;resizable=0;points=[];" vertex="1" connectable="0" parent="6iD_Mrj8QfbNQLrUIZJ0-81">
          <mxGeometry x="-0.2061" y="-2" relative="1" as="geometry">
            <mxPoint as="offset" />
          </mxGeometry>
        </mxCell>
        <mxCell id="6iD_Mrj8QfbNQLrUIZJ0-31" value="vmbr0 (WAN)" style="html=1;outlineConnect=0;fillColor=#CCCCCC;strokeColor=#6881B3;gradientColor=none;gradientDirection=north;strokeWidth=2;shape=mxgraph.networks.bus;gradientColor=none;gradientDirection=north;fontColor=default;perimeter=backbonePerimeter;backboneSize=20;labelBackgroundColor=none;labelBorderColor=none;textShadow=0;" vertex="1" parent="1">
          <mxGeometry x="1190" y="940" width="200" height="22" as="geometry" />
        </mxCell>
        <mxCell id="6iD_Mrj8QfbNQLrUIZJ0-51" value="NGINX website&lt;br&gt;&lt;font color=&quot;#000000&quot;&gt;DHCP&lt;/font&gt;" style="fontColor=#0066CC;verticalAlign=top;verticalLabelPosition=bottom;labelPosition=center;align=center;html=1;outlineConnect=0;fillColor=#CCCCCC;strokeColor=#6881B3;gradientColor=none;gradientDirection=north;strokeWidth=2;shape=mxgraph.networks.web_server;" vertex="1" parent="1">
          <mxGeometry x="990" y="550" width="105" height="105" as="geometry" />
        </mxCell>
        <mxCell id="6iD_Mrj8QfbNQLrUIZJ0-52" style="edgeStyle=orthogonalEdgeStyle;rounded=0;orthogonalLoop=1;jettySize=auto;html=1;entryX=0.88;entryY=0.5;entryDx=0;entryDy=0;entryPerimeter=0;dashed=1;dashPattern=8 8;startArrow=classic;startFill=1;" edge="1" parent="1" target="6iD_Mrj8QfbNQLrUIZJ0-51">
          <mxGeometry relative="1" as="geometry">
            <mxPoint x="1290" y="830" as="sourcePoint" />
            <Array as="points">
              <mxPoint x="1290" y="603" />
            </Array>
          </mxGeometry>
        </mxCell>
        <mxCell id="6iD_Mrj8QfbNQLrUIZJ0-53" value="NAS&lt;br&gt;&lt;font color=&quot;#000000&quot;&gt;DHCP&lt;/font&gt;" style="fontColor=#0066CC;verticalAlign=top;verticalLabelPosition=bottom;labelPosition=center;align=center;html=1;outlineConnect=0;fillColor=#CCCCCC;strokeColor=#6881B3;gradientColor=none;gradientDirection=north;strokeWidth=2;shape=mxgraph.networks.storage;" vertex="1" parent="1">
          <mxGeometry x="990" y="690" width="100" height="100" as="geometry" />
        </mxCell>
        <mxCell id="6iD_Mrj8QfbNQLrUIZJ0-54" style="edgeStyle=orthogonalEdgeStyle;rounded=0;orthogonalLoop=1;jettySize=auto;html=1;entryX=1;entryY=0.5;entryDx=0;entryDy=0;entryPerimeter=0;dashed=1;dashPattern=8 8;startArrow=classic;startFill=1;" edge="1" parent="1" source="6iD_Mrj8QfbNQLrUIZJ0-5" target="6iD_Mrj8QfbNQLrUIZJ0-53">
          <mxGeometry relative="1" as="geometry">
            <mxPoint x="1185" y="612" as="sourcePoint" />
            <Array as="points">
              <mxPoint x="1220" y="740" />
            </Array>
          </mxGeometry>
        </mxCell>
        <mxCell id="6iD_Mrj8QfbNQLrUIZJ0-83" style="edgeStyle=orthogonalEdgeStyle;rounded=0;orthogonalLoop=1;jettySize=auto;html=1;" edge="1" parent="1" source="6iD_Mrj8QfbNQLrUIZJ0-55" target="6iD_Mrj8QfbNQLrUIZJ0-57">
          <mxGeometry relative="1" as="geometry" />
        </mxCell>
        <mxCell id="6iD_Mrj8QfbNQLrUIZJ0-84" value="Filtering, DNS&lt;div&gt;Adblocking ect&lt;/div&gt;" style="edgeLabel;html=1;align=center;verticalAlign=middle;resizable=0;points=[];" vertex="1" connectable="0" parent="6iD_Mrj8QfbNQLrUIZJ0-83">
          <mxGeometry x="-0.3231" relative="1" as="geometry">
            <mxPoint x="-82" y="-30" as="offset" />
          </mxGeometry>
        </mxCell>
        <mxCell id="6iD_Mrj8QfbNQLrUIZJ0-86" value="eth1(LAN)" style="edgeLabel;html=1;align=center;verticalAlign=middle;resizable=0;points=[];" vertex="1" connectable="0" parent="6iD_Mrj8QfbNQLrUIZJ0-83">
          <mxGeometry x="-0.2006" y="1" relative="1" as="geometry">
            <mxPoint as="offset" />
          </mxGeometry>
        </mxCell>
        <mxCell id="6iD_Mrj8QfbNQLrUIZJ0-55" value="OpenWRT router&lt;br&gt;&lt;br&gt;&lt;font color=&quot;#000000&quot;&gt;&lt;br&gt;&lt;br&gt;192.168.178.129 (static)&lt;/font&gt;" style="fontColor=#0066CC;verticalAlign=top;verticalLabelPosition=bottom;labelPosition=center;align=center;html=1;outlineConnect=0;fillColor=#CCCCCC;strokeColor=#6881B3;gradientColor=none;gradientDirection=north;strokeWidth=2;shape=mxgraph.networks.router;" vertex="1" parent="1">
          <mxGeometry x="1000" y="882" width="100" height="30" as="geometry" />
        </mxCell>
        <mxCell id="6iD_Mrj8QfbNQLrUIZJ0-57" value="vmbr1 (LAN)" style="html=1;outlineConnect=0;fillColor=#CCCCCC;strokeColor=#6881B3;gradientColor=none;gradientDirection=north;strokeWidth=2;shape=mxgraph.networks.bus;gradientColor=none;gradientDirection=north;fontColor=default;perimeter=backbonePerimeter;backboneSize=20;labelBackgroundColor=none;labelBorderColor=none;textShadow=0;" vertex="1" parent="1">
          <mxGeometry x="1190" y="890" width="200" height="22" as="geometry" />
        </mxCell>
        <mxCell id="6iD_Mrj8QfbNQLrUIZJ0-62" value="Ethernet attached&lt;div&gt;computers&lt;/div&gt;" style="fontColor=#0066CC;verticalAlign=top;verticalLabelPosition=bottom;labelPosition=center;align=center;html=1;outlineConnect=0;fillColor=#CCCCCC;strokeColor=#6881B3;gradientColor=none;gradientDirection=north;strokeWidth=2;shape=mxgraph.networks.pc;" vertex="1" parent="1">
          <mxGeometry x="1480" y="610" width="100" height="70" as="geometry" />
        </mxCell>
        <mxCell id="6iD_Mrj8QfbNQLrUIZJ0-65" value="Mobile phones, devices&lt;div&gt;ect&lt;/div&gt;" style="fontColor=#0066CC;verticalAlign=top;verticalLabelPosition=bottom;labelPosition=center;align=center;html=1;outlineConnect=0;fillColor=#CCCCCC;strokeColor=#6881B3;gradientColor=none;gradientDirection=north;strokeWidth=2;shape=mxgraph.networks.users;" vertex="1" parent="1">
          <mxGeometry x="1700" y="690" width="90" height="100" as="geometry" />
        </mxCell>
        <mxCell id="6iD_Mrj8QfbNQLrUIZJ0-71" value="" style="html=1;outlineConnect=0;fillColor=#CCCCCC;strokeColor=#6881B3;gradientColor=none;gradientDirection=north;strokeWidth=2;shape=mxgraph.networks.comm_link_edge;html=1;rounded=0;entryX=0.5;entryY=0;entryDx=0;entryDy=0;entryPerimeter=0;exitX=0.5;exitY=1;exitDx=0;exitDy=0;exitPerimeter=0;" edge="1" parent="1" source="6iD_Mrj8QfbNQLrUIZJ0-65" target="7c3789c024ecab99-54">
          <mxGeometry width="100" height="100" relative="1" as="geometry">
            <mxPoint x="1360" y="980" as="sourcePoint" />
            <mxPoint x="1460" y="880" as="targetPoint" />
          </mxGeometry>
        </mxCell>
        <mxCell id="6iD_Mrj8QfbNQLrUIZJ0-88" value="Pi Hole dns (filter out ads)&lt;br&gt;&lt;font color=&quot;#000000&quot;&gt;DHCP&lt;/font&gt;" style="fontColor=#0066CC;verticalAlign=top;verticalLabelPosition=bottom;labelPosition=center;align=center;html=1;outlineConnect=0;fillColor=#CCCCCC;strokeColor=#6881B3;gradientColor=none;gradientDirection=north;strokeWidth=2;shape=mxgraph.networks.proxy_server;" vertex="1" parent="1">
          <mxGeometry x="990" y="390" width="105" height="105" as="geometry" />
        </mxCell>
        <mxCell id="6iD_Mrj8QfbNQLrUIZJ0-89" style="edgeStyle=orthogonalEdgeStyle;rounded=0;orthogonalLoop=1;jettySize=auto;html=1;entryX=0.88;entryY=0.5;entryDx=0;entryDy=0;entryPerimeter=0;dashed=1;dashPattern=8 8;startArrow=classic;startFill=1;" edge="1" parent="1" source="6iD_Mrj8QfbNQLrUIZJ0-5">
          <mxGeometry relative="1" as="geometry">
            <mxPoint x="1288" y="667" as="sourcePoint" />
            <mxPoint x="1080" y="440" as="targetPoint" />
            <Array as="points">
              <mxPoint x="1350" y="440" />
            </Array>
          </mxGeometry>
        </mxCell>
      </root>
    </mxGraphModel>
  </diagram>
</mxfile>
